<svg xmlns="http://www.w3.org/2000/svg" width="24" height="24" viewBox="0 0 24 24">
    <g fill="none" fill-rule="evenodd">
        <circle cx="12" cy="12" r="12" fill="#E6E0DD"/>
        <path fill="#403839" fill-rule="nonzero" d="M10.023 18c-.6 0-1.075-.498-1.075-1.1 0-.6.475-1.098 1.075-1.098s1.074.497 1.074 1.099c0 .601-.475 1.099-1.074 1.099zm0-1.167c-.056 0-.09.036-.09.068 0 .031.034.067.09.067.055 0 .089-.036.089-.067 0-.032-.034-.067-.09-.067zM15.44 18c-.6 0-1.075-.497-1.075-1.098 0-.602.475-1.099 1.074-1.099.6 0 1.075.497 1.075 1.099 0 .601-.475 1.099-1.075 1.099h.001zm0-1.166c-.056 0-.09.036-.09.068 0 .031.035.067.09.067.055 0 .089-.036.089-.067 0-.032-.034-.067-.09-.067h.001zM6.082 7.166c-.208 0-.4-.11-.504-.291-.104-.18-.104-.403 0-.583.104-.18.296-.292.504-.292h1.97c.28 0 .52.199.572.474l.402 2.105h7.892c.173 0 .337.077.447.21.11.133.157.308.125.478l-.788 4.333c-.146.765-.804 1.32-1.557 1.305H10.37c-.765.015-1.423-.54-1.568-1.304l-.822-4.305-.01-.046-.398-2.084H6.082zm3.862 6.216c.041.215.213.36.414.356h4.799c.188.004.36-.141.4-.352l.663-3.64H9.25l.694 3.636z"/>
    </g>
</svg>
