<?xml version="1.0" encoding="utf-8"?>
<!-- Generator: Adobe Illustrator 22.0.0, SVG Export Plug-In . SVG Version: 6.00 Build 0)  -->
<svg version="1.1" id="Layer_1" xmlns="http://www.w3.org/2000/svg" xmlns:xlink="http://www.w3.org/1999/xlink" x="0px" y="0px"
	 viewBox="0 0 13 13" style="enable-background:new 0 0 13 13;" xml:space="preserve">
<style type="text/css">
	.st0{fill:#403839;stroke:#403839;stroke-width:0.1;}
</style>
<path id="prefix__a" class="st0" d="M5.9,5.3c-0.3,0-0.6,0.3-0.6,0.6v5.3c0,0.3,0.3,0.6,0.6,0.6h5.3c0.3,0,0.6-0.3,0.6-0.6V5.9
	c0-0.3-0.3-0.6-0.6-0.6H5.9z M11.2,4.1c1,0,1.8,0.8,1.8,1.8v5.3c0,1-0.8,1.8-1.8,1.8H5.9c-1,0-1.8-0.8-1.8-1.8V5.9
	c0-1,0.8-1.8,1.8-1.8H11.2z M7.1,0c1,0,1.8,0.8,1.8,1.8v0.6C8.9,2.7,8.6,3,8.3,3C7.9,3,7.7,2.7,7.7,2.4V1.8c0-0.3-0.3-0.6-0.6-0.6
	H1.8c-0.3,0-0.6,0.3-0.6,0.6v5.3c0,0.3,0.3,0.6,0.6,0.6h0.6C2.7,7.7,3,7.9,3,8.3c0,0.3-0.3,0.6-0.6,0.6H1.8C0.8,8.9,0,8.1,0,7.1V1.8
	C0,0.8,0.8,0,1.8,0H7.1z"/>
</svg>
