<svg xmlns="http://www.w3.org/2000/svg" xmlns:xlink="http://www.w3.org/1999/xlink" width="24" height="24" viewBox="0 0 24 24">
    <defs>
        <path id="prefix__a" d="M5 4.5c-.276 0-.5.224-.5.5v4.5c0 .276.224.5.5.5h4.5c.276 0 .5-.224.5-.5V5c0-.276-.224-.5-.5-.5H5zm4.5-1c.828 0 1.5.672 1.5 1.5v4.5c0 .828-.672 1.5-1.5 1.5H5c-.828 0-1.5-.672-1.5-1.5V5c0-.828.672-1.5 1.5-1.5h4.5zM6 0c.828 0 1.5.672 1.5 1.5V2c0 .276-.224.5-.5.5s-.5-.224-.5-.5v-.5c0-.276-.224-.5-.5-.5H1.5c-.276 0-.5.224-.5.5V6c0 .276.224.5.5.5H2c.276 0 .5.224.5.5s-.224.5-.5.5h-.5C.672 7.5 0 6.828 0 6V1.5C0 .672.672 0 1.5 0z"/>
    </defs>
    <g fill="none" fill-rule="evenodd">
        <circle cx="12" cy="12" r="12" fill="#E6E0DD"/>
        <g transform="translate(7 7)">
            <use fill="#403839" fill-rule="nonzero" stroke="#403839" stroke-width=".1" xlink:href="#prefix__a"/>
        </g>
    </g>
</svg>
