<?xml version="1.0" encoding="utf-8"?>
<!-- Generator: Adobe Illustrator 22.0.0, SVG Export Plug-In . SVG Version: 6.00 Build 0)  -->
<svg version="1.1" id="Layer_1" xmlns="http://www.w3.org/2000/svg" xmlns:xlink="http://www.w3.org/1999/xlink" x="0px" y="0px"
	 viewBox="0 0 12 12" style="enable-background:new 0 0 12 12;" xml:space="preserve">
<style type="text/css">
	.st0{fill:#403839;}
</style>
<path id="prefix__a" class="st0" d="M7.1,0C8,0,8.7,0.7,8.7,1.6v0.5h2.2c0.3,0,0.5,0.2,0.5,0.5l0,0.1c0,0.3-0.2,0.5-0.5,0.5l-0.5,0
	v7.1c0,0.9-0.6,1.6-1.5,1.6l-0.1,0H3.3c-0.9,0-1.6-0.7-1.6-1.6V3.3H1.2c-0.3,0-0.5-0.2-0.5-0.5l0-0.1c0-0.3,0.2-0.5,0.5-0.5l2.2,0
	V1.6C3.3,0.8,4,0.1,4.8,0L5,0H7.1z M9.3,3.3H2.8v7.1c0,0.3,0.2,0.5,0.5,0.5l0.1,0h5.4c0.3,0,0.5-0.2,0.5-0.5V3.3z M7.1,1.1H5
	c-0.3,0-0.5,0.2-0.5,0.5v0.5h3.2V1.6C7.7,1.4,7.5,1.1,7.1,1.1C7.2,1.1,7.1,1.1,7.1,1.1z"/>
</svg>
