<svg xmlns="http://www.w3.org/2000/svg" xmlns:xlink="http://www.w3.org/1999/xlink" width="24" height="24" viewBox="0 0 24 24">
    <defs>
        <path id="prefix__a" d="M6.15 0c3.397 0 6.15 2.753 6.15 6.15 0 3.397-2.753 6.15-6.15 6.15C2.753 12.3 0 9.547 0 6.15 0 2.753 2.753 0 6.15 0zm0 1.118c-2.779 0-5.032 2.253-5.032 5.032s2.253 5.032 5.032 5.032 5.032-2.253 5.032-5.032S8.929 1.118 6.15 1.118zm0 1.118c.309 0 .56.25.56.56v3.122l1.513 1.514c.218.218.218.572 0 .79-.219.219-.573.219-.791 0L5.755 6.546c-.105-.105-.164-.247-.164-.395V2.795c0-.308.25-.559.559-.559z"/>
    </defs>
    <g fill="none" fill-rule="evenodd">
        <circle cx="12" cy="12" r="12" fill="#E6E0DD"/>
        <g transform="translate(6 6)">
            <use fill="#403839" fill-rule="nonzero" xlink:href="#prefix__a"/>
        </g>
    </g>
</svg>
