<svg xmlns="http://www.w3.org/2000/svg" xmlns:xlink="http://www.w3.org/1999/xlink" width="24" height="24" viewBox="0 0 24 24">
    <defs>
        <path id="prefix__a" d="M6.5 0c1.83 0 3.433.907 4.796 2.398.468.512.875 1.059 1.22 1.606.208.33.35.591.427.748.076.156.076.34 0 .496-.076.157-.22.417-.427.748-.345.547-.752 1.094-1.22 1.606C9.933 9.093 8.331 10 6.5 10c-1.83 0-3.433-.907-4.796-2.398C1.236 7.09.829 6.543.484 5.996c-.208-.33-.35-.591-.427-.748-.076-.156-.076-.34 0-.496.076-.157.22-.417.427-.748.345-.547.752-1.094 1.22-1.606C3.067.907 4.669 0 6.5 0zm0 1.111c-1.487 0-2.83.76-4.006 2.047-.42.46-.788.955-1.1 1.449-.088.14-.166.272-.234.393.068.12.146.253.234.393.312.494.68.99 1.1 1.45C3.67 8.128 5.013 8.888 6.5 8.888s2.83-.76 4.006-2.047c.42-.46.788-.955 1.1-1.449.088-.14.166-.272.234-.393-.068-.12-.146-.253-.234-.393-.312-.494-.68-.99-1.1-1.45C9.33 1.872 7.987 1.112 6.5 1.112zm0 1.667c1.197 0 2.167.995 2.167 2.222 0 1.227-.97 2.222-2.167 2.222-1.197 0-2.167-.995-2.167-2.222 0-1.227.97-2.222 2.167-2.222zm0 1.11c-.598 0-1.083.498-1.083 1.112 0 .614.485 1.111 1.083 1.111S7.583 5.614 7.583 5 7.098 3.889 6.5 3.889z"/>
    </defs>
    <g fill="none" fill-rule="evenodd">
        <circle cx="12" cy="12" r="12" fill="#E6E0DD"/>
        <g transform="translate(5.5 7)">
            <use fill="#403839" fill-rule="nonzero" xlink:href="#prefix__a"/>
        </g>
    </g>
</svg>
