<svg xmlns="http://www.w3.org/2000/svg" width="60" height="49" viewBox="0 0 60 49">
    <g fill="none">
        <path fill="#1272CC" d="M57.902 6.472H25.175l-.84-2.106C23.078 1.84 20.56.156 17.623.156H2.098C.839.156 0 .998 0 2.26v43.79c0 1.263.84 2.105 2.098 2.105h55.804c1.259 0 2.098-.842 2.098-2.105V8.577c0-1.263-.84-2.105-2.098-2.105z"/>
        <path fill="#2196F3" d="M57.902 6.156H2.098C.839 6.156 0 7.004 0 8.277v37.758c0 1.272.84 2.12 2.098 2.12h55.804c1.259 0 2.098-.848 2.098-2.12V8.277c0-1.273-.84-2.121-2.098-2.121z"/>
    </g>
</svg>
