<svg xmlns="http://www.w3.org/2000/svg" xmlns:xlink="http://www.w3.org/1999/xlink" width="24" height="24" viewBox="0 0 24 24">
    <defs>
        <path id="prefix__a" d="M8.056 6.111c1.073 0 1.944.87 1.944 1.945C10 9.129 9.13 10 8.056 10 6.982 10 6.11 9.13 6.11 8.056c0-1.074.87-1.945 1.945-1.945zm.44-5.393c.217-.217.569-.217.786 0 .217.217.217.569 0 .786L1.504 9.282c-.217.217-.569.217-.786 0-.217-.217-.217-.569 0-.786zm-.44 6.504c-.46 0-.834.373-.834.834 0 .46.373.833.834.833.46 0 .833-.373.833-.833 0-.46-.373-.834-.833-.834zM1.944 0C3.018 0 3.89.87 3.89 1.944c0 1.074-.87 1.945-1.945 1.945C.871 3.889 0 3.019 0 1.944 0 .871.87 0 1.944 0zm0 1.111c-.46 0-.833.373-.833.833 0 .46.373.834.833.834.46 0 .834-.373.834-.834 0-.46-.373-.833-.834-.833z"/>
    </defs>
    <g fill="none" fill-rule="evenodd">
        <circle cx="12" cy="12" r="12" fill="#E6E0DD"/>
        <g transform="translate(7 7)">
            <use fill="#403839" fill-rule="nonzero" xlink:href="#prefix__a"/>
        </g>
    </g>
</svg>
