<svg xmlns="http://www.w3.org/2000/svg" width="24" height="24" viewBox="0 0 24 24">
    <g fill="none" fill-rule="evenodd">
        <circle cx="12" cy="12" r="12" fill="#E6E0DD"/>
        <path fill="#403839" fill-rule="nonzero" d="M17.893 11.2l-4.408-4.125c-.053-.05-.103-.078-.175-.075-.138.006-.313.103-.313.25V9.32c-.002.064-.049.118-.112.128-4.384.672-6.23 3.954-6.883 7.36-.025.135.157.26.24.153 1.6-2.015 3.547-3.331 6.624-3.356.07 0 .131.081.131.15v2.031c0 .22.291.316.454.166l4.44-4.198c.08-.074.105-.162.109-.262-.004-.1-.029-.216-.107-.29z"/>
    </g>
</svg>
