<svg xmlns="http://www.w3.org/2000/svg" width="16" height="16" viewBox="0 0 16 16">
    <path fill="#403839" d="M15.37 6.804L8.848.736c-.48-.42-1.212-.42-1.692 0L.629 6.804c-.26.226-.278.61-.045.861.233.251.633.27.89.044L8 1.641l6.526 6.068c.259.226.657.207.89-.044.233-.25.214-.635-.045-.86zm-1.742 2.25c-.349 0-.631.274-.631.61v4.695H10.49v-4.067c0-.675-.565-1.22-1.263-1.22H6.773c-.698 0-1.263.545-1.263 1.22v4.067H3.003V9.665c0-.337-.282-.61-.63-.61-.35 0-.632.273-.632.61v4.694c0 .674.564 1.22 1.262 1.22h9.994c.698 0 1.262-.546 1.262-1.22V9.665c0-.337-.282-.61-.631-.61zm-6.855 1.238h2.454v4.067H6.773v-4.067z"/>
</svg>
