<svg xmlns="http://www.w3.org/2000/svg" width="24" height="17" fill="none" viewBox="0 0 24 17">
    <path fill="#403839" stroke="#403839" stroke-linecap="round" stroke-linejoin="round" stroke-width=".5" d="M14.572 9.208c.39 0 .708-.317.708-.709 0-.39-.317-.708-.708-.708-.392 0-.709.317-.709.708 0 .392.317.709.709.709zM14.572 14.167c.39 0 .708-.317.708-.709 0-.39-.317-.708-.708-.708-.392 0-.709.317-.709.708 0 .392.317.709.709.709zM14.572 4.25c.39 0 .708-.316.708-.708 0-.39-.317-.708-.708-.708-.392 0-.709.317-.709.708 0 .392.317.709.709.709zM8.5 9.208c.39 0 .708-.317.708-.709 0-.39-.317-.708-.709-.708-.39 0-.708.317-.708.708 0 .392.317.709.708.709zM8.5 14.167c.39 0 .708-.317.708-.709 0-.39-.317-.708-.709-.708-.39 0-.708.317-.708.708 0 .392.317.709.708.709zM8.5 4.25c.39 0 .708-.316.708-.708 0-.39-.317-.708-.709-.708-.39 0-.708.317-.708.708 0 .392.317.709.708.709z"/>
</svg>
