<svg xmlns="http://www.w3.org/2000/svg" xmlns:xlink="http://www.w3.org/1999/xlink" width="24" height="24" viewBox="0 0 24 24">
    <defs>
        <path id="19tvx3ok4a" d="M7.2 0C8.194 0 9 .806 9 1.8v.6h2.4c.298 0 .546.218.592.503L12 3c0 .331-.269.6-.6.6l-.6-.001V11.4c0 .944-.727 1.719-1.652 1.794L9 13.2H3c-.994 0-1.8-.806-1.8-1.8V3.599L.6 3.6c-.298 0-.546-.218-.592-.503L0 3c0-.331.269-.6.6-.6H3v-.6C3 .856 3.727.081 4.652.006L4.8 0zM3.588 3.6L2.4 3.599V11.4c0 .298.218.546.503.592L3 12h6c.331 0 .6-.269.6-.6V3.599H8.412L8.4 3.6h-.012l-4.776-.001L3.6 3.6h-.012zM4.8 5.4c.331 0 .6.269.6.6v3.6c0 .331-.269.6-.6.6-.331 0-.6-.269-.6-.6V6c0-.331.269-.6.6-.6zm2.4 0c.331 0 .6.269.6.6v3.6c0 .331-.269.6-.6.6-.331 0-.6-.269-.6-.6V6c0-.331.269-.6.6-.6zm0-4.2H4.8c-.331 0-.6.269-.6.6v.6h3.6v-.6c0-.298-.218-.546-.503-.592L7.2 1.2z"/>
    </defs>
    <g fill="none" fill-rule="evenodd">
        <circle cx="12" cy="12" r="12" fill="#E94B35"/>
        <g transform="translate(6 5)">
            <use fill="#FFF" fill-rule="nonzero" xlink:href="#19tvx3ok4a"/>
        </g>
    </g>
</svg>
