<svg xmlns="http://www.w3.org/2000/svg" width="53" height="40" fill="none" viewBox="0 0 53 40">
    <rect width="53" height="40" fill="#6C6766" rx="4"/>
    <path stroke="#fff" stroke-linecap="round" stroke-linejoin="round" d="M20 17h13M25 20v4M28 20v4M21 17l.786 9.429c0 .416.165.816.46 1.11.295.295.694.461 1.111.461h6.286c.417 0 .816-.166 1.111-.46.295-.295.46-.695.46-1.111L32 17M24 17v-3c0-.265.088-.52.244-.707.156-.188.368-.293.59-.293h3.333c.22 0 .433.105.589.293.156.187.244.442.244.707v3"/>
</svg>
