<svg xmlns="http://www.w3.org/2000/svg" xmlns:xlink="http://www.w3.org/1999/xlink" width="24" height="24" viewBox="0 0 24 24">
    <defs>
        <path id="prefix__a" d="M12.435 7.092c.237 0 .44.14.524.34l.003.008c.025.063.038.131.038.198v3.272c0 .301-.253.546-.565.546-.312 0-.565-.245-.565-.546V8.898l-1.658 1.503C8.84 11.726 6.86 12.28 4.967 11.865c-1.893-.413-3.434-1.735-4.081-3.5-.104-.284.05-.596.344-.697.294-.1.617.049.722.333.517 1.412 1.75 2.47 3.264 2.8 1.515.331 3.099-.111 4.21-1.183l1.582-1.435H9.043c-.312 0-.565-.245-.565-.546 0-.301.253-.545.565-.545h3.392zM8.033.135c1.893.413 3.434 1.735 4.081 3.5.104.284-.05.596-.344.697-.294.1-.617-.049-.722-.333-.517-1.412-1.75-2.47-3.264-2.8-1.515-.331-3.099.111-4.21 1.183L1.993 3.817h1.965c.312 0 .565.245.565.546 0 .301-.253.545-.565.545H.565c-.237 0-.44-.14-.524-.34L.038 4.56C.013 4.497 0 4.43 0 4.362V1.09C0 .789.253.544.565.544c.312 0 .565.245.565.546v2.012l1.658-1.503C4.16.274 6.14-.28 8.033.135z"/>
    </defs>
    <g fill="none" fill-rule="evenodd">
        <circle cx="12" cy="12" r="12" fill="#E6E0DD"/>
        <g transform="translate(6 6)">
            <use fill="#403839" transform="matrix(-1 0 0 1 13 0)" xlink:href="#prefix__a"/>
        </g>
    </g>
</svg>
