<svg xmlns="http://www.w3.org/2000/svg" width="25" height="25" fill="none" viewBox="0 0 25 25">
    <path fill="#E6E0DD" d="M12.5 25C19.404 25 25 19.404 25 12.5S19.404 0 12.5 0 0 5.596 0 12.5 5.596 25 12.5 25z"/>
    <g clip-path="url(#clip0)">
        <path fill="#403839" d="M13.038 8.22l3.053 2.671c.226.197.59.197.816 0 .226-.197.226-.517 0-.714l-3.461-3.029c-.226-.197-.59-.197-.816 0l-3.462 3.03c-.225.196-.225.516 0 .713.226.197.59.197.816 0l3.054-2.672z"/>
        <mask id="4skckb48va" width="9" height="5" x="9" y="7" maskUnits="userSpaceOnUse">
            <path fill="#fff" d="M13.038 8.22l3.053 2.671c.226.197.59.197.816 0 .226-.197.226-.517 0-.714l-3.461-3.029c-.226-.197-.59-.197-.816 0l-3.462 3.03c-.225.196-.225.516 0 .713.226.197.59.197.816 0l3.054-2.672z"/>
        </mask>
        <path fill="#403839" d="M13.039 16.28L9.985 13.61c-.225-.197-.59-.197-.816 0-.225.197-.225.517 0 .714l3.461 3.029c.226.197.591.197.816 0l3.462-3.03c.225-.196.225-.516 0-.713-.225-.197-.59-.197-.816 0L13.04 16.28z"/>
        <mask id="6a2ic80lbb" width="9" height="5" x="9" y="13" maskUnits="userSpaceOnUse">
            <path fill="#fff" d="M13.039 16.28L9.985 13.61c-.225-.197-.59-.197-.816 0-.225.197-.225.517 0 .714l3.461 3.029c.226.197.591.197.816 0l3.462-3.03c.225-.196.225-.516 0-.713-.225-.197-.59-.197-.816 0L13.04 16.28z"/>
        </mask>
    </g>
    <defs>
        <clipPath id="clip0">
            <path fill="#fff" d="M0 0H13V13H0z" transform="translate(7 5)"/>
        </clipPath>
    </defs>
</svg>
