<svg xmlns="http://www.w3.org/2000/svg" xmlns:xlink="http://www.w3.org/1999/xlink" width="24" height="24" viewBox="0 0 24 24">
    <defs>
        <path id="ub7huhfz6a" d="M9.5 6c.276 0 .5.224.5.5v1C10 8.88 8.88 10 7.5 10H1.707l1.147 1.146c.173.174.192.443.057.638l-.057.07c-.196.195-.512.195-.708 0l-2-2-.012-.013C.123 9.83.112 9.816.102 9.802c-.01-.011-.017-.023-.025-.035l-.02-.035-.02-.041-.014-.04c-.005-.015-.009-.03-.012-.046C.004 9.571 0 9.536 0 9.5l.005.074C.002 9.554.001 9.532 0 9.512V9.5v-.011c0-.022.003-.045.006-.067l.005-.027.012-.046.015-.04c.005-.014.012-.027.019-.04.006-.013.013-.025.02-.036.02-.03.043-.06.07-.087l-.045.052c.01-.014.02-.027.033-.04l.011-.012 2-2c.196-.195.512-.195.708 0 .195.196.195.512 0 .708L1.707 9H7.5c.78 0 1.42-.595 1.493-1.356L9 7.5v-1c0-.276.224-.5.5-.5zM7.146.146c.196-.195.512-.195.708 0l2 2 .012.013c.011.012.022.025.032.039.01.011.017.023.025.035l.02.035.02.041.014.04c.005.015.009.03.012.046.007.034.011.069.011.105l-.005-.072.005.052v.04l-.005.052-.006.033-.012.046-.015.04c-.005.014-.012.027-.019.04-.006.013-.013.025-.02.036-.02.03-.043.06-.07.087l.045-.052c-.01.014-.02.027-.033.04l-.011.012-2 2c-.196.195-.512.195-.708 0-.195-.196-.195-.512 0-.708L8.292 3H2.5c-.78 0-1.42.595-1.493 1.356L1 4.5v1c0 .276-.224.5-.5.5S0 5.776 0 5.5v-1C0 3.12 1.12 2 2.5 2h5.792L7.146.854C6.973.68 6.954.41 7.09.216z"/>
    </defs>
    <g fill="none" fill-rule="evenodd">
        <circle cx="12" cy="12" r="12" fill="#E6E0DD"/>
        <g transform="translate(7 6)">
            <use fill="#403839" fill-rule="nonzero" xlink:href="#ub7huhfz6a"/>
        </g>
    </g>
</svg>
