<svg xmlns="http://www.w3.org/2000/svg" xmlns:xlink="http://www.w3.org/1999/xlink" width="24" height="24" viewBox="0 0 24 24">
    <defs>
        <path id="prefix__a" d="M7.126 0c.895 0 1.62.733 1.62 1.636v.545h2.16c.269 0 .491.199.533.458l.007.088c0 .302-.242.546-.54.546l-.54-.001v7.092c0 .856-.65 1.558-1.48 1.63l-.14.006h-5.4c-.895 0-1.62-.733-1.62-1.636V3.272h-.54c-.268 0-.49-.197-.533-.456l-.007-.089c0-.301.242-.545.54-.545l2.16-.001v-.545c0-.856.651-1.558 1.48-1.63L4.966 0zm2.16 3.272h-6.48v7.092c0 .27.196.496.453.538l.087.007h5.4c.298 0 .54-.244.54-.545V3.272zm-2.16-2.181h-2.16c-.298 0-.54.244-.54.545v.545h3.24v-.545c0-.27-.196-.496-.452-.538l-.088-.007z"/>
    </defs>
    <g fill="none" fill-rule="evenodd">
        <circle cx="12" cy="12" r="12" fill="#E6E0DD"/>
        <g transform="translate(6 6)">
            <use fill="#403839" fill-rule="nonzero" xlink:href="#prefix__a"/>
        </g>
    </g>
</svg>
