<svg xmlns="http://www.w3.org/2000/svg" width="180" height="40" fill="none" viewBox="0 0 180 40">
    <rect width="180" height="40" fill="#6C6766" rx="4"/>
    <path fill="#fff" d="M72.32 17.216c-.186-.27-.438-.467-.756-.588-.308-.13-.634-.196-.98-.196-.205 0-.406.023-.602.07-.186.047-.359.121-.518.224-.149.103-.27.238-.364.406-.093.159-.14.35-.14.574 0 .336.117.593.35.77.234.177.523.331.868.462.346.13.724.257 1.134.378.411.121.79.29 1.134.504.346.215.635.5.868.854.234.355.35.826.35 1.414 0 .532-.098.999-.294 1.4-.196.392-.462.719-.798.98-.326.261-.709.457-1.148.588-.438.13-.9.196-1.386.196-.616 0-1.208-.103-1.778-.308-.569-.205-1.059-.55-1.47-1.036l1.33-1.288c.215.327.495.583.84.77.355.177.728.266 1.12.266.206 0 .411-.028.616-.084.206-.056.392-.14.56-.252.168-.112.304-.252.406-.42.103-.177.154-.378.154-.602 0-.364-.116-.644-.35-.84-.233-.196-.522-.36-.868-.49-.345-.14-.723-.27-1.134-.392-.41-.121-.788-.285-1.134-.49-.345-.215-.634-.495-.868-.84-.233-.355-.35-.826-.35-1.414 0-.513.103-.957.308-1.33.215-.373.49-.681.826-.924.346-.252.738-.439 1.176-.56.44-.121.887-.182 1.344-.182.523 0 1.027.08 1.512.238.495.159.938.42 1.33.784l-1.288 1.358zm4.372 5.012c.056.504.252.896.588 1.176.335.28.742.42 1.218.42.42 0 .77-.084 1.05-.252.289-.177.54-.397.755-.658l1.204.91c-.392.485-.83.83-1.316 1.036-.485.205-.993.308-1.526.308-.504 0-.98-.084-1.428-.252-.447-.168-.835-.406-1.161-.714-.327-.308-.588-.677-.784-1.106-.187-.439-.28-.924-.28-1.456 0-.532.093-1.013.28-1.442.195-.439.457-.812.784-1.12.326-.308.714-.546 1.162-.714.448-.168.924-.252 1.427-.252.467 0 .892.084 1.274.252.393.159.724.392.995.7.28.308.494.69.644 1.148.158.448.237.966.237 1.554v.462h-5.123zm3.444-1.26c-.01-.495-.164-.882-.462-1.162-.3-.29-.715-.434-1.247-.434-.504 0-.905.145-1.204.434-.289.29-.466.677-.531 1.162h3.444zm3.279-6.552h1.68V25h-1.68V14.416zm4.952 7.812c.056.504.252.896.588 1.176.336.28.742.42 1.218.42.42 0 .77-.084 1.05-.252.29-.177.542-.397.756-.658l1.204.91c-.392.485-.83.83-1.316 1.036-.485.205-.994.308-1.526.308-.504 0-.98-.084-1.428-.252-.448-.168-.835-.406-1.162-.714-.326-.308-.588-.677-.784-1.106-.186-.439-.28-.924-.28-1.456 0-.532.094-1.013.28-1.442.196-.439.458-.812.784-1.12.327-.308.714-.546 1.162-.714.448-.168.924-.252 1.428-.252.467 0 .892.084 1.274.252.392.159.724.392.994.7.28.308.495.69.644 1.148.159.448.238.966.238 1.554v.462h-5.124zm3.444-1.26c-.009-.495-.163-.882-.462-1.162-.298-.29-.714-.434-1.246-.434-.504 0-.905.145-1.204.434-.289.29-.466.677-.532 1.162h3.444zm7.843-.672c-.196-.205-.401-.369-.616-.49-.214-.121-.434-.182-.658-.182-.308 0-.583.056-.826.168-.242.112-.452.261-.63.448-.168.187-.298.401-.392.644-.084.243-.126.495-.126.756s.042.513.126.756c.094.243.224.457.392.644.178.187.388.336.63.448.243.112.518.168.826.168.262 0 .504-.051.728-.154.224-.112.416-.27.574-.476l1.12 1.204c-.168.168-.364.313-.588.434-.214.121-.434.22-.658.294-.224.075-.438.126-.644.154-.205.037-.382.056-.532.056-.504 0-.98-.084-1.428-.252-.448-.168-.835-.406-1.162-.714-.326-.308-.588-.677-.784-1.106-.186-.439-.28-.924-.28-1.456 0-.532.094-1.013.28-1.442.196-.439.458-.812.784-1.12.327-.308.714-.546 1.162-.714.448-.168.924-.252 1.428-.252.43 0 .859.084 1.288.252.439.159.822.415 1.148.77l-1.162 1.162zm1.378-.588V18.28h1.386v-1.946h1.68v1.946h1.848v1.428h-1.848v2.94c0 .336.061.602.182.798.131.196.383.294.756.294.15 0 .313-.014.49-.042.178-.037.318-.093.42-.168v1.414c-.177.084-.396.14-.658.168-.252.037-.476.056-.672.056-.448 0-.816-.051-1.106-.154-.28-.093-.504-.238-.672-.434-.158-.205-.27-.457-.336-.756-.056-.299-.084-.644-.084-1.036v-3.08h-1.386zm10.97 0h-1.386V18.28h1.386v-.952c0-.467.033-.887.098-1.26.066-.383.187-.71.364-.98.187-.27.444-.476.77-.616.327-.15.752-.224 1.274-.224.383 0 .738.033 1.064.098l-.112 1.428c-.121-.028-.238-.051-.35-.07-.112-.019-.228-.028-.35-.028-.233 0-.42.037-.56.112-.14.075-.252.177-.336.308-.074.121-.126.266-.154.434-.018.168-.028.345-.028.532v1.218h1.554v1.428h-1.554V25h-1.68v-5.292zm4.326-1.428h1.68V25h-1.68v-6.72zm-.224-2.282c0-.27.098-.504.294-.7.206-.205.462-.308.77-.308s.565.098.77.294c.215.187.322.425.322.714 0 .29-.107.532-.322.728-.205.187-.462.28-.77.28s-.564-.098-.77-.294c-.196-.205-.294-.443-.294-.714zm3.623-1.582h1.68V25h-1.68V14.416zm4.953 7.812c.056.504.252.896.588 1.176.336.28.742.42 1.218.42.42 0 .77-.084 1.05-.252.289-.177.541-.397.756-.658l1.204.91c-.392.485-.831.83-1.316 1.036-.486.205-.994.308-1.526.308-.504 0-.98-.084-1.428-.252-.448-.168-.836-.406-1.162-.714-.327-.308-.588-.677-.784-1.106-.187-.439-.28-.924-.28-1.456 0-.532.093-1.013.28-1.442.196-.439.457-.812.784-1.12.326-.308.714-.546 1.162-.714.448-.168.924-.252 1.428-.252.466 0 .891.084 1.274.252.392.159.723.392.994.7.28.308.494.69.644 1.148.158.448.238.966.238 1.554v.462h-5.124zm3.444-1.26c-.01-.495-.164-.882-.462-1.162-.299-.29-.714-.434-1.246-.434-.504 0-.906.145-1.204.434-.29.29-.467.677-.532 1.162h3.444zm6.835-.826c-.327-.457-.765-.686-1.316-.686-.224 0-.443.056-.658.168-.215.112-.322.294-.322.546 0 .205.089.355.266.448.177.093.401.173.672.238l.868.21c.317.065.611.173.882.322.271.14.495.336.672.588.177.252.266.597.266 1.036 0 .401-.089.742-.266 1.022-.168.27-.392.49-.672.658-.271.168-.579.29-.924.364-.345.075-.691.112-1.036.112-.523 0-1.003-.075-1.442-.224-.439-.15-.831-.42-1.176-.812l1.12-1.05c.215.243.443.443.686.602.252.15.555.224.91.224.121 0 .247-.014.378-.042.131-.028.252-.075.364-.14.112-.065.201-.145.266-.238.075-.103.112-.22.112-.35 0-.233-.089-.406-.266-.518-.177-.112-.401-.2-.672-.266-.271-.075-.565-.14-.882-.196-.308-.065-.597-.163-.868-.294-.271-.14-.495-.331-.672-.574-.177-.243-.266-.579-.266-1.008 0-.373.075-.695.224-.966.159-.28.364-.509.616-.686.252-.177.541-.308.868-.392.327-.084.658-.126.994-.126.448 0 .891.08 1.33.238.439.15.793.41 1.064.784l-1.12 1.008z"/>
    <path stroke="#fff" stroke-linecap="round" stroke-linejoin="round" stroke-width="1.5" d="M43 22.75v1.5c0 .398.158.78.44 1.06.28.282.662.44 1.06.44h9c.398 0 .78-.158 1.06-.44.282-.28.44-.662.44-1.06v-1.5M45.25 16.75L49 13l3.75 3.75M49 13v9"/>
</svg>
