<svg xmlns="http://www.w3.org/2000/svg" width="20" height="20" fill="none" viewBox="0 0 20 20">
    <g clip-path="url(#clip0)">
        <path fill="#2B2B2B" d="M5.879 17h-.165c-1.236-.218-2.225-1.16-2.225-2.321V8.876c-.577-.363-.99-.943-.99-1.669 0-.145 0-.29.083-.508l.824-2.974C3.571 3.29 3.983 3 4.478 3h10.961c.495 0 .99.29 1.072.725l.824 2.974c.247.798-.165 1.669-.989 2.104v5.803c0 1.306-.892 2.394-2.376 2.394H5.88zm3.791-6.02c.247 0 .412.144.412.362v5.005h3.71c1.07 0 1.895-.725 1.895-1.668V9.02h-.412c-.577 0-1.154-.29-1.484-.726-.33.436-.907.726-1.484.726h-.741c-.577 0-1.154-.29-1.484-.726-.33.436-.906.726-1.483.726h-.907c-.577 0-1.154-.29-1.483-.726-.33.436-.907.726-1.484.726h-.412v5.658c0 .725.495 1.306 1.236 1.523v-4.86c0-.218.165-.363.412-.363h3.71zm-3.379 5.367h3.05v-4.642H6.29v4.642zm7.83-9.357v.145c-.083.58.412 1.16 1.154 1.16h.412c.082 0 .165 0 .247-.072.577-.218.906-.798.742-1.378l-.824-2.975c-.083-.145-.165-.217-.33-.217H4.56c-.247 0-.33.145-.412.29l-.824 2.974c0 .073-.082.218-.082.29 0 .58.412 1.088 1.071 1.16h.412c.66-.072 1.154-.652 1.072-1.232V6.99c0-.145.164-.363.412-.363.164 0 .33.145.412.363v.145c-.083.58.412 1.16 1.071 1.233h.742c.66-.073 1.154-.58 1.154-1.16V6.99c0-.145.165-.363.412-.363.247 0 .412.145.412.29v.145c-.083.58.412 1.16 1.154 1.16h.741c.66-.072 1.154-.58 1.154-1.16V6.99c0-.218.165-.363.33-.363s.33.145.33.363zm-2.885 7.326c-.247 0-.412-.145-.412-.363V11.27c0-.217.165-.362.412-.362h3.05c.247 0 .412.145.412.362v2.684c0 .218-.165.363-.412.363h-3.05zm.33-.653h2.307v-2.03h-2.307v2.03z"/>
    </g>
    <defs>
        <clipPath id="clip0">
            <path fill="#fff" d="M0 0H15V14H0z" transform="translate(2.5 3)"/>
        </clipPath>
    </defs>
</svg>
