<svg xmlns="http://www.w3.org/2000/svg" width="20" height="20" fill="none" viewBox="0 0 20 20">
    <g clip-path="url(#clip0)">
        <path fill="#2B2B2B" d="M11.083 17.822L10 15.333l-1.083 2.49c-.084.177-.334.266-.5.177-.167-.089-.25-.356-.167-.533l1.167-2.578H5.75c-1.417 0-2.5-1.333-2.5-2.756V5.2h-.417c-.166 0-.333-.178-.333-.356v-1.6C2.5 2.534 3 2 3.583 2h12.834C17 2 17.5 2.533 17.5 3.244v1.6c0 .178-.167.356-.333.445h-.334v6.755c0 1.512-1.083 2.756-2.5 2.756h-3.75l1.167 2.578c.083.178 0 .444-.167.533h-.166c-.167.089-.25 0-.334-.089zm-7.166-5.778c0 1.067.75 1.956 1.75 1.956h8.583c1 0 1.833-.889 1.75-1.956V5.2H3.917v6.844zm-.667-8.8V4.49h13.583V3.244c0-.177-.166-.355-.333-.444H3.583c-.25 0-.333.178-.333.444zm2.833 8.978c-.083-.178 0-.444.167-.533l6.333-3.556L11.25 7.6c-.167-.089-.25-.267-.25-.533.083-.178.25-.356.417-.267l2.083.8c.083 0 .167.089.167.089.083.089.166.267.083.444l-.75 2.4c-.083.178-.25.356-.417.267 0-.089-.083-.356-.083-.533l.417-1.511-6.334 3.555h-.166c-.084.089-.25 0-.334-.089z"/>
    </g>
    <defs>
        <clipPath id="clip0">
            <path fill="#fff" d="M0 0H15V16H0z" transform="translate(2.5 2)"/>
        </clipPath>
    </defs>
</svg>
