<svg xmlns="http://www.w3.org/2000/svg" width="20" height="20" fill="none" viewBox="0 0 20 20">
    <g clip-path="url(#clip0)">
        <path fill="#D18F77" d="M5.73 17.53c-1.417 0-2.5-1.082-2.5-2.5V7.449c-.417-.167-.75-.584-.75-1V3.53c0-.583.5-1.083 1.083-1.083h12.833c.583 0 1.083.5 1.083 1.083v2.833c0 .417-.25.834-.75 1v7.583c0 1.417-1.083 2.5-2.5 2.5h-8.5v.084zm-1.834-2.5c0 1 .833 1.75 1.75 1.75h8.583c1 0 1.75-.833 1.75-1.75v-7.5H3.896v7.5zm-.667-11.5v2.834c0 .167.167.334.334.334h12.833c.166 0 .333-.167.333-.334V3.531c0-.167-.166-.333-.333-.333H3.563c-.167 0-.334.166-.334.333zm4.667 6.834c-.167 0-.333-.167-.333-.333 0-.167.166-.333.333-.333h4.25c.166 0 .333.166.333.333 0 .166-.166.333-.333.333h-4.25z"/>
    </g>
    <defs>
        <clipPath id="clip0">
            <path fill="#fff" d="M0 0H15V15H0z" transform="translate(2.5 2.5)"/>
        </clipPath>
    </defs>
</svg>
