<svg xmlns="http://www.w3.org/2000/svg" xmlns:xlink="http://www.w3.org/1999/xlink" width="17" height="17" viewBox="0 0 17 17">
    <defs>
        <path id="prefix__a" d="M2.195 14.805l3.232-1.078c.215-.071.45-.054.652.048.882.446 1.857.676 2.846.674 2.414-.001 4.62-1.366 5.701-3.528.446-.882.677-1.857.674-2.844l.001-.38c-.178-3.236-2.762-5.82-5.95-5.997h-.428c-.987-.003-1.962.228-2.847.675-2.16 1.08-3.524 3.286-3.525 5.702-.002.987.228 1.962.674 2.844.102.202.12.437.048.652l-1.078 3.232zM17 8.073c.003 1.256-.29 2.494-.855 3.611-1.367 2.735-4.161 4.463-7.217 4.465-1.135.003-2.256-.237-3.288-.7l-4.52 1.506c-.664.221-1.296-.41-1.075-1.075l1.507-4.52c-.464-1.032-.704-2.153-.7-3.286 0-3.058 1.729-5.852 4.46-7.218C6.435.29 7.673-.004 8.927 0l.471.001c4.101.227 7.375 3.5 7.603 7.648v.424z"/>
    </defs>
    <g fill="none" fill-rule="evenodd">
        <use fill="#DE8B6D" fill-rule="nonzero" xlink:href="#prefix__a"/>
    </g>
</svg>
