<svg xmlns="http://www.w3.org/2000/svg" width="20" height="20" fill="none" viewBox="0 0 20 20">
    <g clip-path="url(#clip0)">
        <path fill="#2B2B2B" d="M4.98 18.018c-1.417 0-2.5-1.156-2.5-2.667V4.684c0-1.51 1.083-2.666 2.5-2.666h10c1.416 0 2.5 1.155 2.5 2.666v10.667c0 1.511-1.084 2.667-2.5 2.667h-10zM3.23 4.684v10.667c0 1.067.833 1.867 1.75 1.867h10c1 0 1.75-.89 1.75-1.867V4.684c0-1.066-.834-1.866-1.75-1.866h-.334v8c0 .178-.167.355-.333.355h-.167l-2-.889-2 .89c-.167.088-.417 0-.5-.178V2.817H4.979c-1-.09-1.75.8-1.75 1.866zm7.166 5.511l1.667-.8h.25l1.583.712V2.729h-3.5v7.466zm-5.417 5.512c-.166 0-.333-.178-.333-.356s.167-.356.333-.356h4.25c.167 0 .334.178.334.356s-.167.356-.334.356H4.98zm0-2.312c-.166 0-.333-.177-.333-.355s.167-.356.333-.356h2.167c.167 0 .333.178.333.356s-.166.356-.333.356H4.979z"/>
    </g>
    <defs>
        <clipPath id="clip0">
            <path fill="#fff" d="M0 0H15V16H0z" transform="translate(2.5 2)"/>
        </clipPath>
    </defs>
</svg>
