<svg xmlns="http://www.w3.org/2000/svg" width="20" height="20" fill="none" viewBox="0 0 20 20">
    <g clip-path="url(#clip0)">
        <path fill="#D18F77" d="M5.48 16.988c-1.417 0-2.5-1.25-2.5-2.583V5.07c0-.916.666-1.75 1.583-1.833l9.416-1.25h.167c.583 0 1.083.5 1.083 1.167V5.82h1c1 0 1.834.834 1.75 1.834v6.75c0 1.416-1.083 2.583-2.5 2.583h-10zM3.73 7.655v6.75c0 1 .75 1.833 1.75 1.833h10c1 0 1.833-.833 1.75-1.833v-.417h-3.25c-1.417 0-2.5-1.25-2.5-2.583 0-1.417 1.083-2.584 2.5-2.584h3.25V7.655c0-.584-.5-1.084-1.084-1.084H4.813c-.667-.083-1.084.417-1.084 1.084zm8.583 3.75c0 1 .75 1.833 1.75 1.833h3.25v-3.75h-3.25c-1 0-1.834.917-1.75 1.917zm1.75-8.667l-9.417 1.25c-.583.083-.917.583-.917 1.083v1c.334-.25.667-.333 1.084-.333h9.666V3.155c-.083-.25-.166-.417-.416-.417zm.333 8.667c0-.167.167-.334.333-.334.167 0 .334.167.334.334 0 .166-.167.333-.334.333-.166 0-.333-.167-.333-.333z"/>
    </g>
    <defs>
        <clipPath id="clip0">
            <path fill="#fff" d="M0 0H15V15H0z" transform="translate(3 2)"/>
        </clipPath>
    </defs>
</svg>
