<svg xmlns="http://www.w3.org/2000/svg" xmlns:xlink="http://www.w3.org/1999/xlink" width="17" height="15" viewBox="0 0 17 15">
    <defs>
        <path id="prefix__a" d="M9.208 9c1.956 0 3.542 1.679 3.542 3.75v1.5c0 .414-.317.75-.708.75-.392 0-.709-.336-.709-.75v-1.5c0-1.243-.951-2.25-2.125-2.25H3.542c-1.174 0-2.125 1.007-2.125 2.25v1.5c0 .414-.317.75-.709.75-.39 0-.708-.336-.708-.75v-1.5C0 10.679 1.586 9 3.542 9zm4.273.66c.098-.401.484-.642.863-.539 1.563.428 2.655 1.92 2.656 3.629v1.5c0 .414-.317.75-.708.75-.392 0-.709-.336-.709-.75v-1.5c0-1.025-.656-1.92-1.593-2.176-.38-.104-.607-.513-.51-.914zM6.375 0c1.956 0 3.542 1.679 3.542 3.75 0 2.071-1.586 3.75-3.542 3.75-1.956 0-3.542-1.679-3.542-3.75C2.833 1.679 4.42 0 6.375 0zm4.272.661c.097-.4.483-.643.862-.54 1.567.425 2.663 1.92 2.663 3.633s-1.096 3.208-2.663 3.633c-.379.102-.765-.14-.862-.541-.097-.401.132-.81.51-.913.94-.254 1.599-1.152 1.599-2.18 0-1.027-.658-1.924-1.598-2.179-.38-.103-.608-.511-.51-.913zM6.375 1.5C5.201 1.5 4.25 2.507 4.25 3.75S5.201 6 6.375 6 8.5 4.993 8.5 3.75 7.549 1.5 6.375 1.5z"/>
    </defs>
    <g fill="none" fill-rule="evenodd">
        <use fill="#DE8B6D" fill-rule="nonzero" xlink:href="#prefix__a"/>
    </g>
</svg>
