<svg xmlns="http://www.w3.org/2000/svg" xmlns:xlink="http://www.w3.org/1999/xlink" width="13" height="15" viewBox="0 0 13 15">
    <defs>
        <path id="prefix__a" d="M9.389 9C11.383 9 13 10.679 13 12.75v1.5c0 .414-.323.75-.722.75-.4 0-.722-.336-.722-.75v-1.5c0-1.243-.97-2.25-2.167-2.25H3.61c-1.197 0-2.167 1.007-2.167 2.25v1.5c0 .414-.323.75-.722.75C.323 15 0 14.664 0 14.25v-1.5C0 10.679 1.617 9 3.611 9zM6.5 0c1.994 0 3.611 1.679 3.611 3.75 0 2.071-1.617 3.75-3.611 3.75-1.994 0-3.611-1.679-3.611-3.75C2.889 1.679 4.506 0 6.5 0zm0 1.5c-1.197 0-2.167 1.007-2.167 2.25S5.303 6 6.5 6c1.197 0 2.167-1.007 2.167-2.25S7.697 1.5 6.5 1.5z"/>
    </defs>
    <g fill="none" fill-rule="evenodd">
        <use fill="#403839" fill-rule="nonzero" xlink:href="#prefix__a"/>
    </g>
</svg>
