<svg xmlns="http://www.w3.org/2000/svg" width="16" height="16" viewBox="0 0 16 16">
    <g fill="#DE8B6D">
        <path d="M8 0c4.4 0 8 3.6 8 8s-3.6 8-8 8-8-3.6-8-8 3.6-8 8-8zm0 14.545c3.6 0 6.545-2.945 6.545-6.545S11.6 1.455 8 1.455 1.455 4.4 1.455 8 4.4 14.545 8 14.545z"/>
        <path d="M8.123 7.316c-.819-.102-1.187-.513-1.146-.854.04-.342.409-.547 1.023-.547.614 0 1.31.239 1.31.239.41.137.901 0 1.065-.342.163-.342 0-.752-.41-.889-.082-.034-.532-.205-1.146-.308V4.24c0-.376-.369-.683-.819-.683-.45 0-.819.307-.819.683v.41c-1.187.24-1.76.992-1.842 1.71-.082.991.737 2.085 2.538 2.29.82.103 1.188.513 1.147.855-.041.342-.41.547-1.024.547-.614 0-1.31-.239-1.31-.239-.41-.137-.9 0-1.064.342-.164.342 0 .752.409.889.082.034.532.205 1.146.307v.41c0 .377.369.684.82.684.45 0 .818-.307.818-.683v-.41c1.187-.24 1.76-.992 1.842-1.71.082-.991-.778-2.085-2.538-2.325"/>
    </g>
</svg>
