<svg xmlns="http://www.w3.org/2000/svg" width="20" height="20" fill="none" viewBox="0 0 20 20">
    <g clip-path="url(#clip0)">
        <path fill="#D18F77" d="M2.896 18.04c-.167 0-.333-.177-.333-.355v-.177l2.166-4.534c.084-.089.167-.178.334-.178h2.083l-.833-.888c-2.167-2.312-2.25-5.956-.167-8.178 2.083-2.222 5.5-2.311 7.583-.09 2.084 2.223 2.167 5.868.084 8.09l-.084.089-.833.889h2.083c.167 0 .25.088.334.177l2.166 4.534c.084.177 0 .444-.166.533H2.896v.089zm.5-.8h13.167l-1.75-3.821h-2.584l-2 2.133c-.083.089-.333.089-.5 0l-2-2.133h-2.5L3.396 17.24zm2-9.51c0 1.333.5 2.578 1.417 3.555l3.166 3.467 3.25-3.467c1.834-1.955 1.834-5.066.084-7.022-1.75-1.955-4.75-2.044-6.584-.089-.833.89-1.333 2.222-1.333 3.556zm2.083 0c0-1.511 1.084-2.667 2.5-2.667 1.417 0 2.5 1.156 2.5 2.667 0 1.51-1.083 2.666-2.5 2.666-1.416 0-2.5-1.244-2.5-2.666zm.75 0c0 1.066.834 1.866 1.75 1.866.917 0 1.75-.888 1.75-1.866 0-.978-.833-1.867-1.75-1.867-.916 0-1.75.8-1.75 1.867z"/>
    </g>
    <defs>
        <clipPath id="clip0">
            <path fill="#fff" d="M0 0H15V16H0z" transform="translate(2.5 2)"/>
        </clipPath>
    </defs>
</svg>
