<svg xmlns="http://www.w3.org/2000/svg" width="18" height="18" viewBox="0 0 18 18">
    <path fill="#403839" d="M17.292 7.655L9.952.828C9.413.355 8.59.355 8.05.828L.71 7.655c-.293.254-.315.686-.052.968.262.283.712.304 1.002.05L9 1.846l7.341 6.827c.292.254.74.233 1.002-.05.263-.282.24-.714-.051-.968zm-1.96 2.532c-.393 0-.71.307-.71.686v5.28H11.8v-4.575c0-.758-.635-1.372-1.42-1.372H7.619c-.785 0-1.42.614-1.42 1.372v4.576H3.38v-5.281c0-.38-.318-.686-.71-.686-.393 0-.71.307-.71.686v5.28c0 .76.635 1.373 1.42 1.373H14.62c.785 0 1.42-.614 1.42-1.372v-5.281c0-.38-.317-.686-.71-.686zm-7.713 1.391h2.762v4.576H7.619v-4.576z"/>
</svg>
