<svg xmlns="http://www.w3.org/2000/svg" width="20" height="20" fill="none" viewBox="0 0 20 20">
    <g clip-path="url(#clip0)">
        <path fill="#D18F77" d="M.975 10.034c0-5 4-9 9-9s9 4 9 9-4 9-9 9-9-4.1-9-9zm.9 0c0 4.5 3.6 8.1 8.1 8.1s8.1-3.6 8.1-8.1-3.6-8.1-8.1-8.1c-4.5-.1-8.1 3.6-8.1 8.1zm4.9 4.1c-.1-.2-.1-.5-.1-.7l.3-2-1.4-1.5c-.4-.4-.4-1.1 0-1.6.2-.2.4-.3.6-.3l1.9-.3.9-1.8c.3-.6.9-.8 1.5-.6.2.1.4.3.5.5l.9 1.9 1.9.3c.6.1 1 .7.9 1.3 0 .2-.1.5-.3.6l-1.4 1.4.3 2c.1.6-.3 1.2-.9 1.3-.2 0-.5 0-.7-.1l-1.7-.9-1.7.9c-.2.1-.3.1-.5.1-.4.1-.8-.2-1-.5zm3-7.8l-1 2c0 .1-.1.2-.3.2l-2.1.4c-.1 0-.1 0-.1.1-.1.1-.1.3 0 .4l1.6 1.6v.3l-.4 2.2v.2c0 .1.2.2.3.1l1.9-1.1c.1-.1.3-.1.4 0l1.9 1.1h.1c.1 0 .2-.2.2-.3l-.4-2.2c0-.1 0-.3.1-.4l1.6-1.6s.1-.1.1-.2-.1-.3-.2-.3l-2.2-.3c-.1 0-.3-.1-.3-.2l-1-2-.1-.1h-.1c.1-.1.1 0 0 .1z"/>
    </g>
    <defs>
        <clipPath id="clip0">
            <path fill="#fff" d="M0 0H18V18H0z" transform="translate(1 1)"/>
        </clipPath>
    </defs>
</svg>
