<svg xmlns="http://www.w3.org/2000/svg" width="20" height="20" fill="none" viewBox="0 0 20 20">
    <g clip-path="url(#clip0)">
        <path fill="#2B2B2B" d="M11.3 18.8L10 16l-1.3 2.8c-.1.2-.4.3-.6.2-.2-.1-.3-.4-.2-.6l1.4-2.9H4.9c-1.7 0-3-1.5-3-3.1V4.6h-.5c-.2 0-.4-.2-.4-.4V2.4C1 1.6 1.6 1 2.3 1h15.4c.7 0 1.3.6 1.3 1.4v1.8c0 .2-.2.4-.4.5h-.4v7.6c0 1.7-1.3 3.1-3 3.1h-4.5l1.4 2.9c.1.2 0 .5-.2.6h-.2c-.2.1-.3 0-.4-.1zm-8.6-6.5c0 1.2.9 2.2 2.1 2.2h10.3c1.2 0 2.2-1 2.1-2.2V4.6H2.7v7.7zm-.8-9.9v1.4h16.3V2.4c0-.2-.2-.4-.4-.5H2.3c-.3 0-.4.2-.4.5zm4.7 9.4c-.2 0-.4-.2-.4-.5 0-.2.2-.4.4-.4h6.9c.2 0 .4.2.4.5 0 .2-.2.4-.4.4H6.6zm1.7-2.7c-.3 0-.5-.2-.4-.5 0-.2.2-.4.4-.4h3.4c.2 0 .4.2.4.5 0 .2-.2.4-.4.4H8.3z"/>
    </g>
    <defs>
        <clipPath id="clip0">
            <path fill="#fff" d="M0 0H18V18H0z" transform="translate(1 1)"/>
        </clipPath>
    </defs>
</svg>
