<svg xmlns="http://www.w3.org/2000/svg" width="15" height="15" viewBox="0 0 15 15">
    <path fill="#DE8B6D" d="M5.654 15c-.75 0-1.344-.623-1.344-1.374 0-.752.594-1.373 1.344-1.373.75 0 1.343.621 1.343 1.373 0 .751-.595 1.374-1.343 1.374zm0-1.459c-.07 0-.112.046-.112.085 0 .04.042.084.112.084.069 0 .11-.045.11-.084 0-.04-.041-.084-.11-.084zM12.426 15c-.75 0-1.344-.622-1.344-1.373 0-.752.594-1.373 1.343-1.373.75 0 1.344.621 1.344 1.373 0 .751-.594 1.374-1.344 1.374h.001zm0-1.458c-.07 0-.113.046-.113.085 0 .04.044.084.112.084.07 0 .113-.045.113-.084 0-.04-.043-.084-.113-.084h.001zM.728 1.458c-.26 0-.5-.139-.63-.365-.13-.225-.13-.503 0-.729C.227.14.467 0 .727 0H3.19c.349 0 .649.248.714.592l.503 2.632h9.865c.216 0 .42.096.558.262.139.166.196.385.157.598L14.002 9.5c-.182.956-1.004 1.65-1.945 1.63h-5.97c-.957.02-1.78-.674-1.961-1.63L3.098 4.12c-.004-.02-.008-.038-.01-.057l-.5-2.605H.729zm4.827 7.77c.051.268.267.45.517.445h6c.235.005.45-.177.5-.44l.828-4.55H4.687l.868 4.544z"/>
</svg>
