<svg xmlns="http://www.w3.org/2000/svg" width="20" height="20" fill="none" viewBox="0 0 20 20">
    <g clip-path="url(#clip0)">
        <path fill="#2B2B2B" d="M5.425 19C3.82 19 2.5 17.63 2.5 15.967v-.39L3.82 4.814c0-.195.19-.391.378-.391H6.18v-.391C6.18 2.37 7.5 1 9.104 1h1.698c1.604 0 2.924 1.37 2.924 3.033v.39h2.17c.189 0 .378.197.378.392l1.32 10.859c.189 1.663-.943 3.13-2.547 3.326H5.425zm0-.88H14.953c.849-.098 1.604-.783 1.792-1.664H3.35c.189.979 1.038 1.664 2.076 1.664zm-2.076-2.544h13.302L15.425 5.304h-1.793v2.153c0 .195-.189.39-.472.39-.188 0-.377-.195-.377-.39V5.304H7.028v2.153c0 .195-.188.39-.377.39-.283 0-.377-.195-.472-.39V5.304H4.575L3.35 15.576zM7.03 4.033v.39h5.754v-.39c0-1.174-.943-2.153-2.075-2.153H9.104c-1.132 0-2.076.979-2.076 2.153z"/>
    </g>
    <defs>
        <clipPath id="clip0">
            <path fill="#fff" d="M0 0H15V18H0z" transform="translate(2.5 1)"/>
        </clipPath>
    </defs>
</svg>
