<svg xmlns="http://www.w3.org/2000/svg" xmlns:xlink="http://www.w3.org/1999/xlink" width="20" height="21" viewBox="0 0 20 21">
    <defs>
        <path id="prefix__a" d="M7 0c.966 0 1.75.784 1.75 1.75v.05c0 .151.09.288.236.35.141.062.307.032.413-.072l.035-.034c.328-.329.774-.514 1.238-.514.465 0 .91.185 1.238.513.328.328.513.774.513 1.238 0 .465-.185.91-.513 1.238l-.03.03c-.109.111-.139.277-.076.419.016.037.029.076.037.116.07.102.185.165.31.166h.099c.966 0 1.75.784 1.75 1.75s-.784 1.75-1.75 1.75h-.05c-.151 0-.288.09-.347.23-.065.147-.035.313.069.42l.034.034c.329.328.514.774.514 1.238 0 .465-.185.91-.513 1.238-.328.328-.774.513-1.238.513-.465 0-.91-.185-1.238-.513l-.03-.03c-.111-.109-.277-.139-.425-.074-.138.06-.229.196-.23.345v.099c0 .966-.783 1.75-1.75 1.75-.966 0-1.75-.784-1.75-1.75-.003-.195-.101-.332-.282-.4-.141-.062-.307-.032-.413.072l-.035.034c-.328.329-.774.514-1.238.514-.465 0-.91-.185-1.238-.513-.328-.328-.513-.774-.513-1.238 0-.465.185-.91.513-1.238l.03-.03c.109-.111.139-.277.074-.425-.06-.138-.196-.229-.345-.23H1.75C.784 8.797 0 8.014 0 7.047c0-.966.784-1.75 1.75-1.75.195-.003.332-.101.4-.282.062-.141.032-.307-.072-.413l-.034-.035c-.329-.328-.514-.774-.514-1.238 0-.465.185-.91.513-1.238.328-.328.774-.513 1.238-.513.465 0 .91.185 1.238.513l.03.03c.111.109.277.139.419.076.037-.016.076-.029.116-.037.102-.07.165-.185.166-.31V1.75C5.25.784 6.034 0 7 0zm0 1.167c-.322 0-.583.26-.583.583v.101c-.003.617-.37 1.172-.937 1.415-.05.021-.101.035-.154.042-.552.194-1.17.06-1.597-.358l-.035-.035c-.11-.11-.258-.171-.413-.171-.155 0-.303.061-.413.171-.11.11-.171.258-.171.413 0 .155.062.303.171.413l.04.04c.442.451.564 1.126.323 1.67-.22.596-.78.997-1.428 1.012H1.75c-.322 0-.583.262-.583.584 0 .322.26.583.583.583h.101c.617.002 1.172.37 1.413.931.255.578.132 1.253-.314 1.71l-.035.035c-.11.11-.171.258-.171.413 0 .155.061.303.171.413.11.11.258.171.413.171.155 0 .303-.062.413-.171l.04-.04c.451-.442 1.126-.564 1.67-.323.596.22.997.78 1.012 1.428v.053c0 .322.262.583.584.583.322 0 .583-.26.583-.583v-.101c.002-.617.37-1.172.931-1.413.578-.255 1.253-.132 1.71.314l.035.035c.11.11.258.171.413.171.155 0 .303-.061.413-.171.11-.11.171-.258.171-.413 0-.155-.062-.303-.171-.413l-.04-.04c-.442-.451-.564-1.126-.309-1.705.24-.56.796-.928 1.415-.93h.052c.322 0 .583-.262.583-.584 0-.322-.26-.583-.583-.583h-.101c-.617-.003-1.172-.37-1.415-.937-.021-.05-.035-.101-.042-.154-.194-.552-.06-1.17.358-1.597l.035-.035c.11-.11.171-.258.171-.413 0-.155-.061-.303-.171-.413-.11-.11-.258-.171-.413-.171-.155 0-.303.062-.413.171l-.04.04c-.451.442-1.126.564-1.699.311-.566-.242-.934-.798-.937-1.416V1.75c0-.322-.26-.583-.583-.583zm0 3.5C8.289 4.667 9.333 5.71 9.333 7 9.333 8.289 8.29 9.333 7 9.333 5.711 9.333 4.667 8.29 4.667 7 4.667 5.711 5.71 4.667 7 4.667zm0 3.5c.644 0 1.167-.523 1.167-1.167S7.644 5.833 7 5.833 5.833 6.356 5.833 7 6.356 8.167 7 8.167z"/>
        <path id="prefix__b" d="M8.41 5.213l5.455 2.72C14.56 8.277 15 8.985 15 9.759v6.48c0 .775-.44 1.482-1.134 1.826l-5.454 2.72c-.576.287-1.255.287-1.83 0l-5.457-2.721c-.694-.35-1.13-1.06-1.125-1.832V9.76c0-.774.44-1.482 1.134-1.825l2.601-1.298c.033-.02.068-.038.104-.052l2.75-1.37c.574-.285 1.248-.285 1.821 0zm-7.047 4.802v6.222c-.001.259.144.496.374.611l5.081 2.534v-6.647l-5.455-2.72zm12.273 0l-5.455 2.72v6.644l5.077-2.532c.232-.114.378-.35.378-.608v-6.224zM4.094 7.978l-1.884.939 5.29 2.639 1.884-.94-5.29-2.638zM7.198 6.43l-1.579.787 5.29 2.638 1.881-.938-4.987-2.486c-.191-.095-.415-.095-.605 0z"/>
    </defs>
    <g fill="none" fill-rule="evenodd">
        <g transform="translate(6)">
            <use fill="#403839" fill-rule="nonzero" xlink:href="#prefix__a"/>
        </g>
        <path fill="#FFF" d="M7.5 5L14.71 8.721 15 16.739 0.517 8.916z"/>
        <use fill="#403839" fill-rule="nonzero" xlink:href="#prefix__b"/>
    </g>
</svg>
