<svg xmlns="http://www.w3.org/2000/svg" xmlns:xlink="http://www.w3.org/1999/xlink" width="15" height="16" viewBox="0 0 15 16">
    <defs>
        <path id="prefix__a" d="M8.41.213l5.455 2.72C14.56 3.277 15 3.985 15 4.759v6.48c0 .775-.44 1.482-1.134 1.826l-5.454 2.72c-.576.287-1.255.287-1.83 0l-5.457-2.721c-.694-.35-1.13-1.06-1.125-1.832V4.76c0-.774.44-1.482 1.134-1.825l2.601-1.298c.033-.02.068-.038.104-.052L6.59.214c.574-.285 1.248-.285 1.821 0zM1.363 5.015v6.222c-.001.259.144.496.374.611l5.081 2.534V7.735l-5.455-2.72zm12.273 0l-5.455 2.72v6.644l5.077-2.532c.232-.114.378-.35.378-.608V5.015zM4.094 2.978l-1.884.939L7.5 6.556l1.884-.94-5.29-2.638zM7.198 1.43l-1.579.787 5.29 2.638 1.881-.938-4.987-2.486c-.191-.095-.415-.095-.605 0z"/>
    </defs>
    <g fill="none" fill-rule="evenodd">
        <use fill="#DE8B6D" fill-rule="nonzero" xlink:href="#prefix__a"/>
    </g>
</svg>
