<svg xmlns="http://www.w3.org/2000/svg" width="20" height="20" fill="none" viewBox="0 0 20 20">
    <g clip-path="url(#clip0)">
        <path fill="#2B2B2B" d="M3.9 18.96c-.2 0-.4-.2-.4-.5v-1.8c-.1-3.6 2.8-6.6 6.5-6.7 3.7.1 6.6 3.1 6.5 6.8v1.8c0 .2-.2.4-.4.5H3.9v-.1zm.5-2.2v1.4h11.3v-1.4c.1-3.2-2.5-5.8-5.6-5.9-3.3.1-5.8 2.7-5.7 5.9zm1.7-11.7c0-2.2 1.7-4 3.9-4.1 2.2 0 3.9 1.9 3.9 4.1 0 2.2-1.7 4-3.9 4.1-2.2-.1-3.9-1.9-3.9-4.1zm.9 0c-.1 1.7 1.3 3.1 3 3.1s3.1-1.4 3-3.1c0-1.7-1.3-3.1-3-3.2-1.7.1-3.1 1.5-3 3.2z"/>
    </g>
    <defs>
        <clipPath id="clip0">
            <path fill="#fff" d="M0 0H13V18H0z" transform="translate(3.5 1)"/>
        </clipPath>
    </defs>
</svg>
