<svg xmlns="http://www.w3.org/2000/svg" xmlns:xlink="http://www.w3.org/1999/xlink" width="17" height="15" viewBox="0 0 17 15">
    <defs>
        <path id="prefix__a" d="M7.792 1.833v11.334h1.416V1.833H7.792zM9.917.417c.39 0 .708.317.708.708v12.75c0 .391-.317.708-.708.708H7.083c-.39 0-.708-.317-.708-.708V1.125c0-.391.317-.708.708-.708h2.834zm5.666 3.541c.392 0 .709.317.709.709v9.208c0 .391-.317.708-.709.708H12.75c-.391 0-.708-.317-.708-.708V4.667c0-.392.317-.709.708-.709h2.833zM4.25 7.5c.391 0 .708.317.708.708v5.667c0 .391-.317.708-.708.708H1.417c-.392 0-.709-.317-.709-.708V8.208c0-.39.317-.708.709-.708H4.25zm10.625-2.125h-1.417v7.792h1.417V5.375zM3.542 8.917H2.125v4.25h1.417v-4.25z"/>
    </defs>
    <g fill="none" fill-rule="evenodd">
        <use fill="#403839" fill-rule="nonzero" xlink:href="#prefix__a"/>
    </g>
</svg>
