<svg xmlns="http://www.w3.org/2000/svg" xmlns:xlink="http://www.w3.org/1999/xlink" width="16" height="16" viewBox="0 0 16 16">
    <defs>
        <path id="prefix__a" d="M5.236 1.123c.345-.15.747.007.897.352.15.345-.007.747-.352.898C3.254 3.476 1.772 6.13 2.16 8.861c.387 2.73 2.548 4.867 5.282 5.223 2.735.357 5.37-1.155 6.445-3.695.146-.347.546-.51.893-.363.347.147.51.547.363.894-1.313 3.105-4.535 4.952-7.877 4.517C3.924 15 1.283 12.39.81 9.052c-.474-3.337 1.337-6.58 4.426-7.93zm3-.623c1.988 0 3.896.79 5.302 2.197 1.407 1.407 2.197 3.315 2.197 5.304 0 .377-.305.682-.682.682H8.235c-.376 0-.681-.305-.681-.682v-6.82c0-.376.305-.681.681-.681zm.681 1.402v5.417h5.417c-.154-1.376-.77-2.668-1.76-3.657-.989-.99-2.28-1.606-3.657-1.76z"/>
    </defs>
    <g fill="none" fill-rule="evenodd">
        <use fill="#403839" fill-rule="nonzero" xlink:href="#prefix__a"/>
    </g>
</svg>
