<svg xmlns="http://www.w3.org/2000/svg" width="20" height="20" fill="none" viewBox="0 0 20 20">
    <g clip-path="url(#clip0)">
        <path fill="#D18F77" d="M5.594 18.026c-1.4 0-2.553-1.227-2.553-2.833V3.86c0-.661.494-1.228 1.07-1.228h2.636c.165-.944.906-1.606 1.812-1.606h2.965c.823 0 1.647.662 1.811 1.606h2.636c.576 0 1.07.567 1.07 1.228v11.333c0 1.606-1.153 2.833-2.553 2.833H5.594zM3.7 3.86v11.333c0 1.133.824 2.078 1.812 1.983h8.812c.988 0 1.811-.85 1.811-1.983V3.86c0-.19-.164-.378-.33-.378h-2.634c-.165.944-.906 1.606-1.812 1.606h-2.8c-.824 0-1.647-.662-1.812-1.606H4.112c-.165-.094-.33.094-.412.378zm3.706-.85c0 .66.494 1.228 1.07 1.228h2.965c.577 0 1.07-.567 1.07-1.228s-.493-1.228-1.07-1.228H8.56c-.659 0-1.153.567-1.153 1.228zm1.318 10.766l-1.4-1.51c-.824-.85-.824-2.267-.083-3.117l.083-.095c.74-.755 1.894-.944 2.717-.283.824-.661 1.977-.567 2.718.283.823.85.823 2.267.082 3.117l-.082.094-1.4 1.511c-.824.756-1.894.756-2.635 0zm-.906-4.25c-.494.567-.494 1.511-.083 2.078l.083.095 1.4 1.51c.411.473 1.153.473 1.564 0l1.4-1.51c.495-.567.495-1.417.083-2.078l-.083-.095c-.576-.566-1.4-.566-1.894 0l-.247.284-.33-.284c-.493-.566-1.317-.566-1.893 0z"/>
    </g>
    <defs>
        <clipPath id="clip0">
            <path fill="#fff" d="M0 0H14V17H0z" transform="translate(3 1)"/>
        </clipPath>
    </defs>
</svg>
