<svg xmlns="http://www.w3.org/2000/svg" width="22" height="16" viewBox="0 0 22 16">
    <path fill="#DE8B6D" stroke="#DE8B6D" stroke-width=".2" d="M12.469.2c.443 0 .825.15 1.145.448.317.286.494.696.486 1.121h0V3.2h1.275c.591 0 1.084.209 1.477.623h0l2.623 2.623c.416.395.625.887.625 1.48h0V11.2h1.038l-2.086 1.151c.048 1.164-.206 1.776-.716 2.285-.509.51-1.12.764-1.836.764-.715 0-1.327-.254-1.836-.764-.51-.509-.764-1.12-.764-1.836h0l-5.838-.4c.038 1.115-.216 1.727-.726 2.236-.509.51-1.12.764-1.836.764-.715 0-1.327-.254-1.836-.764-.51-.509-.764-1.12-.764-1.836h0V8.2h1.2v2.411c.432-.274.9-.41 1.4-.41.828 0 1.511.332 2.048.999H12.9V1.864l-8.31-.46-.424.796h6.09l-9.5 1.267L2.9 2.242c0-.919.162-1.292.484-1.593.31-.294.722-.455 1.147-.449h0zM5.502 11.4c-.39 0-.722.136-.994.408-.267.26-.415.618-.408.99 0 .39.136.722.408.994.26.267.618.415.99.408.39 0 .721-.136.994-.408.267-.26.415-.618.408-.99 0-.39-.136-.722-.408-.994-.26-.267-.619-.415-.99-.408zm11 0c-.39 0-.722.136-.994.408-.267.26-.415.618-.408.99 0 .39.136.722.408.994.26.267.618.415.99.408.39 0 .722-.136.994-.408.267-.26.415-.618.408-.99 0-.39-.136-.722-.408-.994-.26-.267-.618-.415-.99-.408zm2.398-3h-4.8l.352 2.8c.536-.667 1.22-1 2.048-1 .829 0 1.512.333 2.4 1V8.4zm-3.524-4H14.1v2.798l4.382-.087-2.459-2.459c-.174-.162-.406-.253-.647-.252z"/>
</svg>
