<svg xmlns="http://www.w3.org/2000/svg" width="20" height="20" fill="none" viewBox="0 0 20 20">
    <path fill="#D18F77" d="M5.623 16.909c-1.393 0-2.46-1-2.46-2.305V9.378c0-.538.41-.999.985-.999h.573l5.492-5.148c.164-.154.328-.154.492 0l5.574 5.148h.573c.574 0 1.066.461 1.066.999v5.302c0 1.307-1.066 2.306-2.459 2.306H5.623v-.077zM3.82 9.378v5.302c0 .922.82 1.614 1.721 1.614h9.836c.984 0 1.721-.768 1.721-1.614V9.378c0-.154-.164-.307-.328-.307H4.148c-.164 0-.328.153-.328.307zm1.885-.999h9.59L10.46 3.922 5.705 8.38zm1.311 5.917c-.164 0-.327-.154-.327-.307 0-.154.163-.308.327-.308h7.05c.163 0 .327.154.327.308 0 .153-.164.307-.327.307h-7.05zm1.394-2.613c-.164 0-.328-.153-.328-.307s.164-.307.328-.307h4.18c.164 0 .328.153.328.307s-.164.307-.328.307H8.41z"/>
</svg>
