<svg xmlns="http://www.w3.org/2000/svg" width="20" height="20" fill="none" viewBox="0 0 20 20">
    <path fill="#D18F77" d="M5.822 18c-1.244 0-2.4-.889-2.578-2.133L2 10.089V8.489c0-1.511 1.156-2.667 2.667-2.667h1.155V4.667C5.822 3.156 6.978 2 8.49 2h3.022c1.511 0 2.667 1.156 2.667 2.667v1.155h1.155C16.844 5.822 18 6.978 18 8.49V10.089l-1.156 5.778C16.578 17.11 15.511 18 14.178 18H5.822zm-1.866-2.311c.177.889.977 1.511 1.866 1.511h8.445c.889 0 1.689-.622 1.866-1.511l.978-4.889c-1.867 1.067-3.911 1.689-5.955 1.867-.267.533-.89.889-1.512.71-.355-.088-.622-.355-.71-.71-2.134-.178-4.178-.8-6.045-1.867l1.067 4.889zm7.11-3.822c2.223-.178 4.356-.89 6.134-2.045V8.49c0-1.067-.889-1.867-1.867-1.867H4.667C3.6 6.622 2.8 7.512 2.8 8.49v1.333c1.867 1.156 4 1.867 6.133 2.045.267-.623.89-.89 1.511-.623.267.09.534.356.623.623zm-4.533-7.2v1.155h6.845V4.667c0-1.067-.89-1.867-1.867-1.867H8.49c-1.067 0-1.956.8-1.956 1.867z"/>
</svg>
