<svg xmlns="http://www.w3.org/2000/svg" width="20" height="20" fill="none" viewBox="0 0 20 20">
    <g clip-path="url(#clip0)">
        <path fill="#D18F77" d="M5.28 19.042c-1.5 0-2.736-1.3-2.736-3v-12c0-.7.53-1.3 1.147-1.3h2.824c.176-1 .97-1.8 1.94-1.7h3.177c.883 0 1.765.7 1.941 1.7h2.824c.618 0 1.147.6 1.147 1.3v12c0 1.7-1.235 3-2.735 3h-9.53zm-2.03-15v12c0 1.2.882 2.2 1.941 2.1h9.441c1.06 0 1.941-.9 1.941-2.1v-12c0-.2-.176-.4-.352-.4h-2.824c-.176 1-.97 1.7-1.941 1.7h-3c-.882 0-1.765-.7-1.941-1.7H3.69c-.176-.1-.353.1-.441.4zm3.97-.9c0 .7.53 1.3 1.148 1.3h3.176c.618 0 1.147-.6 1.147-1.3 0-.7-.53-1.3-1.147-1.3H8.456c-.706 0-1.235.6-1.235 1.3zm-1.94 12.4c-.265 0-.354-.2-.354-.4s.177-.4.353-.4h9.442c.176 0 .352.2.352.4s-.176.4-.352.4H5.279zm0-3.4c-.177 0-.354-.2-.354-.4s.177-.4.353-.4h9.442c.176 0 .352.2.352.4s-.088.4-.264.4h-9.53zm0-3.4c-.177 0-.354-.2-.354-.4s.177-.4.353-.4h4.765c.177 0 .353.2.353.4s-.176.4-.353.4H5.28z"/>
    </g>
    <defs>
        <clipPath id="clip0">
            <path fill="#fff" d="M0 0H15V18H0z" transform="translate(2.5 1)"/>
        </clipPath>
    </defs>
</svg>
