<svg xmlns="http://www.w3.org/2000/svg" width="18" height="16" viewBox="0 0 18 16">
    <path fill="#403839" stroke="#403839" stroke-width=".3" d="M17 4.65v8.902c0 .402-.146.744-.438 1.026-.291.281-.646.422-1.062.422h-13c-.417 0-.771-.141-1.062-.422-.292-.282-.438-.624-.438-1.026V5.828c0-.393.146-.73.438-1.011.291-.282.64-.428 1.046-.438h.5V2.45c0-.403.149-.745.446-1.027C3.727 1.141 4.078 1 4.484 1l11.297 2.172c.563.151.906.393 1.031.725.125.331.188.583.188.754zm-1 8.902v-8.69c0 .161-.107.282-.32.362-.214.08-.44.12-.68.12H2.5c-.135 0-.253.049-.352.144-.099.096-.148.209-.148.34v7.724c0 .13.05.244.148.34.1.095.217.142.352.142h13c.135 0 .252-.047.352-.143.098-.095.148-.208.148-.34zM4 8.724c.27 0 .505.096.703.287.198.19.297.417.297.679 0 .271-.1.5-.297.686-.198.186-.432.28-.703.28-.281 0-.518-.094-.71-.28C3.095 10.19 3 9.961 3 9.69c0-.262.096-.488.29-.68.192-.19.429-.286.71-.286zm-.016-6.276V4.38H15c.198.01.36-.075.484-.256L4.454 1.966c-.136.01-.248.06-.337.15-.088.09-.133.202-.133.332z"/>
</svg>
