<svg xmlns="http://www.w3.org/2000/svg" width="20" height="20" fill="none" viewBox="0 0 20 20">
    <g clip-path="url(#clip0)">
        <path fill="#D18F77" d="M8.381 18.567c-.153 0-.307-.185-.307-.461 0-.185.154-.37.307-.37h1.691v-4.15c-2.69-.276-4.765-2.95-4.688-6.178v-4.98c0-.185.154-.369.308-.369h9.299c.154 0 .307.184.307.369v4.98c.077 3.228-1.998 5.902-4.688 6.179v4.15h1.69c.155 0 .308.184.308.46 0 .185-.153.37-.307.37H8.38zM6.076 7.407c-.077 2.952 1.844 5.35 4.304 5.35 2.459-.092 4.38-2.49 4.303-5.35v-4.61H6.076v4.61z"/>
    </g>
    <g clip-path="url(#clip1)">
        <path fill="#D18F77" d="M14.8 7.25c-1.009-.154-2.053-.028-3 .38l-1.455.625c-1.405.604-2.99.513-4.307-.231.015.235.027.47.035.706.74.352 1.54.531 2.347.531.734 0 1.471-.148 2.169-.448l1.455-.625c.888-.382 1.872-.485 2.812-.311-.014-.209-.033-.418-.057-.627z"/>
    </g>
    <defs>
        <clipPath id="clip0">
            <path fill="#fff" d="M0 0H10.375V16.6H0z" transform="translate(5 2)"/>
        </clipPath>
        <clipPath id="clip1">
            <path fill="#fff" d="M0 0H8.819V2.075H0z" transform="translate(6.038 7.188)"/>
        </clipPath>
    </defs>
</svg>
